<svg preserveAspectRatio="none" width="100%" height="100%" overflow="visible" style="display: block;" viewBox="0 0 120 120" fill="none" xmlns="http://www.w3.org/2000/svg">
<g id="Frame">
<path id="Vector" d="M81.133 41.875L81.375 41.8751H87.375L87.617 41.875C90.2375 41.8748 92.5825 41.8746 94.479 42.1401C96.557 42.4312 98.6385 43.1039 100.323 44.8586C101.987 46.5919 102.604 48.6964 102.874 50.787C103.125 52.731 103.125 55.146 103.125 57.895V58.355C103.125 61.104 103.125 63.519 102.874 65.463C102.604 67.5535 101.987 69.658 100.323 71.3915C98.6385 73.146 96.557 73.819 94.479 74.11C92.5825 74.3755 90.2375 74.3755 87.617 74.375H87.375H81.375H81.133C78.5125 74.3755 76.1675 74.3755 74.2715 74.11C72.193 73.819 70.1115 73.146 68.427 71.3915C66.7635 69.658 66.1455 67.5535 65.8755 65.463C65.6245 63.519 65.625 61.104 65.625 58.355V58.125V57.895C65.625 55.146 65.6245 52.731 65.8755 50.787C66.1455 48.6964 66.7635 46.5919 68.427 44.8586C70.1115 43.1039 72.193 42.4312 74.2715 42.1401C76.1675 41.8746 78.5125 41.8748 81.133 41.875Z" fill="var(--fill-0, #FF8120)"/>
<path id="Vector_2" d="M81.133 81.875H81.375H87.375H87.617C90.2375 81.875 92.5825 81.8745 94.479 82.14C96.557 82.431 98.6385 83.104 100.323 84.8585C101.987 86.592 102.604 88.6965 102.874 90.787C103.125 92.731 103.125 95.146 103.125 97.895V98.355C103.125 101.104 103.125 103.519 102.874 105.463C102.604 107.553 101.987 109.658 100.323 111.391C98.6385 113.146 96.557 113.819 94.479 114.11C92.5825 114.376 90.2375 114.375 87.617 114.375H87.375H81.375H81.133C78.5125 114.375 76.1675 114.376 74.2715 114.11C72.193 113.819 70.1115 113.146 68.427 111.391C66.7635 109.658 66.1455 107.553 65.8755 105.463C65.6245 103.519 65.625 101.104 65.625 98.355V98.125V97.895C65.625 95.146 65.6245 92.731 65.8755 90.787C66.1455 88.6965 66.7635 86.592 68.427 84.8585C70.1115 83.104 72.193 82.431 74.2715 82.14C76.1675 81.8745 78.5125 81.875 81.133 81.875Z" fill="var(--fill-0, #FF8120)"/>
<path id="Vector_3" fill-rule="evenodd" clip-rule="evenodd" d="M35 5C37.7615 5 40 7.2386 40 10V20H50C52.7615 20 55 22.2386 55 25C55 27.7614 52.7615 30 50 30H40V40C40 42.7615 37.7615 45 35 45C32.2386 45 30 42.7615 30 40V30H20C17.2386 30 15 27.7614 15 25C15 22.2386 17.2386 20 20 20H30V10C30 7.2386 32.2386 5 35 5Z" fill="var(--fill-0, #1E1E20)"/>
<path id="Vector_4" d="M65.631 55.5618H40.3511V55.1753C40.3511 52.3173 38.034 50 35.1756 50C32.3172 50 30 52.3173 30 55.1753V70.7428C29.9999 77.4378 29.9997 82.9588 30.6147 87.3278C31.2603 91.9153 32.6679 95.9663 36.0636 99.2103C39.6349 102.622 44.7654 103.856 49.8864 104.426C53.2605 104.802 60.2295 104.933 65.819 104.978C65.6245 103.123 65.625 100.88 65.625 98.3553V97.8953C65.625 96.9148 65.625 95.9768 65.636 95.0878C60.2945 95.0428 53.944 94.9233 51.085 94.6048C46.4561 94.0893 44.3592 93.1513 43.3829 92.2183C42.231 91.1178 41.3647 89.5013 40.8734 86.0103C40.3621 82.3773 40.3511 77.5258 40.3511 70.3943V65.4498H65.874C65.6245 63.5083 65.625 61.0983 65.625 58.3553V57.8953C65.625 57.0873 65.625 56.3083 65.631 55.5618Z" fill="var(--fill-0, #1E1E20)"/>
</g>
</svg>
