<svg preserveAspectRatio="none" width="100%" height="100%" overflow="visible" style="display: block;" viewBox="0 0 120 120" fill="none" xmlns="http://www.w3.org/2000/svg">
<g id="Frame">
<path id="Vector" d="M83.75 22.5C83.75 14.9061 89.906 8.75 97.5 8.75C105.094 8.75 111.25 14.9061 111.25 22.5C111.25 30.0939 105.094 36.25 97.5 36.25C89.906 36.25 83.75 30.0939 83.75 22.5Z" fill="var(--fill-0, #1E1E20)"/>
<path id="Vector_2" fill-rule="evenodd" clip-rule="evenodd" d="M77.9585 14.1384C76.859 16.7047 76.25 19.5313 76.25 22.5C76.25 34.2361 85.764 43.75 97.5 43.75C100.467 43.75 103.292 43.1421 105.857 42.0439C106.25 47.7645 106.25 54.7885 106.25 62.7845C106.25 73.15 106.25 81.3115 105.393 87.6885C104.513 94.231 102.67 99.4535 98.5615 103.562C94.4535 107.67 89.231 109.513 82.6885 110.393C76.3115 111.25 68.15 111.25 57.7845 111.25C47.4195 111.25 38.6884 111.25 32.3117 110.393C25.7688 109.513 20.5464 107.67 16.4385 103.562C12.3305 99.4535 10.4869 94.231 9.6072 87.6885C8.7499 81.3115 8.74995 73.15 8.75 62.785C8.74995 52.42 8.7499 43.6884 9.6072 37.3117C10.4869 30.7688 12.3305 25.5464 16.4385 21.4385C20.5464 17.3305 25.7688 15.4869 32.3117 14.6072C38.6884 13.7499 47.4195 13.75 57.7845 13.75C65.7455 13.75 72.4075 13.7499 77.9585 14.1384Z" fill="var(--fill-0, #FF8120)"/>
<path id="Vector_3" fill-rule="evenodd" clip-rule="evenodd" d="M50.262 37.5069C52.248 37.6112 53.9835 38.8824 54.6815 40.7444L65.6555 70.0085L70.528 60.264C71.375 58.57 73.106 57.5 75 57.5H87.5C90.2615 57.5 92.5 59.7385 92.5 62.5C92.5 65.2615 90.2615 67.5 87.5 67.5H78.09L69.472 84.736C68.583 86.515 66.724 87.5975 64.738 87.493C62.752 87.389 61.0165 86.1175 60.3185 84.2555L49.3443 54.9915L44.4722 64.736C43.6252 66.43 41.8938 67.5 40 67.5H27.5C24.7386 67.5 22.5 65.2615 22.5 62.5C22.5 59.7385 24.7386 57.5 27.5 57.5H36.9098L45.5278 40.264C46.4172 38.4853 48.2761 37.4027 50.262 37.5069Z" fill="var(--fill-0, white)"/>
</g>
</svg>
