<svg preserveAspectRatio="none" width="100%" height="100%" overflow="visible" style="display: block;" viewBox="0 0 120 120" fill="none" xmlns="http://www.w3.org/2000/svg">
<g id="Frame">
<path id="Vector" fill-rule="evenodd" clip-rule="evenodd" d="M72.019 70.1255C75.49 66.4725 80.488 63.75 86.25 63.75C92.012 63.75 97.01 66.4725 100.481 70.1255C103.919 73.743 106.25 78.6795 106.25 83.75V98.75C106.25 101.511 104.011 103.75 101.25 103.75C98.4885 103.75 96.25 101.511 96.25 98.75V83.75C96.25 81.673 95.2235 79.1095 93.232 77.014C91.2745 74.954 88.772 73.75 86.25 73.75C83.728 73.75 81.2255 74.954 79.268 77.014C77.2765 79.1095 76.25 81.673 76.25 83.75V101.25C76.25 102.631 77.3695 103.75 78.75 103.75C80.1305 103.75 81.25 102.631 81.25 101.25V83.75C81.25 80.9885 83.4885 78.75 86.25 78.75C89.0115 78.75 91.25 80.9885 91.25 83.75V101.25C91.25 108.153 85.6535 113.75 78.75 113.75C71.8465 113.75 66.25 108.153 66.25 101.25V83.75C66.25 78.6795 68.581 73.743 72.019 70.1255Z" fill="var(--fill-0, black)"/>
<g id="Group">
<path id="Vector_2" d="M84.945 7.0157C79.2485 6.24985 71.9705 6.2499 62.782 6.25H57.218C48.0294 6.2499 40.7513 6.24985 35.0553 7.01565C29.1932 7.8038 24.4485 9.46435 20.7067 13.2062C16.9649 16.9479 15.3043 21.6926 14.5161 27.5547C13.7502 33.2507 13.7502 40.5288 13.7502 49.7176L13.75 72.7445C13.7499 80.7555 13.7498 87.1025 14.3433 92.1235C14.9525 97.2785 16.2316 101.522 19.1406 105.066C20.1276 106.269 21.2305 107.372 22.4332 108.359C25.9779 111.268 30.2214 112.548 35.3762 113.157C40.3971 113.75 46.7437 113.75 54.7545 113.75H62.7815C63.456 113.75 64.1205 113.75 64.774 113.75C61.8055 110.433 60 106.052 60 101.25V83.75C60 76.8055 63.1495 70.3865 67.488 65.8205C71.902 61.1755 78.458 57.5 86.25 57.5C94.042 57.5 100.598 61.1755 105.012 65.8205C105.437 66.267 105.85 66.732 106.25 67.213V49.718C106.25 40.5293 106.25 33.2509 105.484 27.5549C104.696 21.6928 103.036 16.9481 99.2935 13.2062C95.5515 9.4644 90.807 7.8038 84.945 7.0157Z" fill="var(--fill-0, #4569FC)"/>
<path id="Vector_3" d="M96.6261 109.005C96.4031 108.904 96.1836 108.796 95.9681 108.682C95.8136 109.038 95.6486 109.389 95.4736 109.734C95.8661 109.505 96.2506 109.262 96.6261 109.005Z" fill="var(--fill-0, black)"/>
</g>
<path id="Vector_4" fill-rule="evenodd" clip-rule="evenodd" d="M33.75 30C33.75 27.929 35.429 26.25 37.5 26.25H82.5C84.571 26.25 86.25 27.929 86.25 30C86.25 32.071 84.571 33.75 82.5 33.75H37.5C35.429 33.75 33.75 32.071 33.75 30Z" fill="var(--fill-0, white)"/>
<path id="Vector_5" fill-rule="evenodd" clip-rule="evenodd" d="M33.75 50C33.75 47.929 35.429 46.25 37.5 46.25H67.5C69.571 46.25 71.25 47.929 71.25 50C71.25 52.071 69.571 53.75 67.5 53.75H37.5C35.429 53.75 33.75 52.071 33.75 50Z" fill="var(--fill-0, white)"/>
</g>
</svg>
