<svg preserveAspectRatio="none" width="100%" height="100%" overflow="visible" style="display: block;" viewBox="0 0 120 120" fill="none" xmlns="http://www.w3.org/2000/svg">
<g id="Frame">
<path id="Vector" d="M108.75 65.25V65V40.6056C108.75 38.4057 108.757 37.0221 108.608 35.6739C108.113 31.1968 106.351 26.9533 103.535 23.4376C102.709 22.4058 101.756 21.4537 100.268 19.9657L100.151 19.8487L100.034 19.7319C98.5464 18.2436 97.5944 17.2915 96.5624 16.4649C93.0469 13.649 88.8034 11.8867 84.3264 11.3917C82.9779 11.2427 81.5944 11.2501 79.3944 11.2501H54.9999H54.7504C45.5462 11.25 38.2565 11.25 32.5537 12.0167C26.6922 12.8049 21.9496 14.4665 18.208 18.2081C14.4665 21.9496 12.8048 26.6923 12.0166 32.5538C11.2499 38.2566 11.25 45.5463 11.25 54.7505V55V65V65.25C11.25 74.454 11.2499 81.7435 12.0166 87.4465C12.8048 93.308 14.4665 98.0505 18.208 101.792C21.9496 105.534 26.6922 107.196 32.5537 107.984C38.2565 108.75 45.5461 108.75 54.7499 108.75H54.9999H64.9999H65.2499C74.4539 108.75 81.7434 108.75 87.4464 107.984C93.3079 107.196 98.0504 105.534 101.792 101.792C105.533 98.0505 107.195 93.308 107.983 87.4465C108.75 81.7435 108.75 74.454 108.75 65.25Z" fill="var(--fill-0, #FF8120)"/>
<path id="Vector_2" d="M65.2344 61.2598C69.7384 61.2598 73.4949 61.2593 76.4744 61.6603C79.6129 62.0823 82.4449 63.0113 84.7219 65.2883C86.9984 67.5648 87.9274 70.3973 88.3494 73.5353C88.7499 76.5148 88.7499 80.2718 88.7499 84.7753V107.783C88.3209 107.853 87.8879 107.929 87.4464 107.988C81.7434 108.755 74.4529 108.755 65.2489 108.755H54.7509C45.547 108.755 38.2565 108.755 32.5538 107.988C32.1122 107.929 31.6789 107.853 31.25 107.783V84.7753C31.2499 80.2718 31.2499 76.5148 31.6504 73.5353C32.0726 70.3973 33.0019 67.5648 35.2784 65.2883C37.5551 63.0113 40.3874 62.0823 43.5254 61.6603C46.505 61.2593 50.2619 61.2598 54.7654 61.2598H65.2344Z" fill="var(--fill-0, #1E1E20)"/>
<path id="Vector_3" d="M79.3944 11.2501C81.5944 11.2501 82.9779 11.2427 84.3264 11.3917C85.8344 11.5585 87.3134 11.878 88.7499 12.3243V20.2393C88.7499 24.7428 88.7504 28.5002 88.3494 31.4796C87.9274 34.6173 86.9984 37.45 84.7219 39.7266C82.4449 42.0031 79.6124 42.9324 76.4744 43.3546C73.4949 43.7552 69.7384 43.7551 65.2344 43.755H54.7654C50.2619 43.7551 46.505 43.7552 43.5254 43.3546C40.3875 42.9324 37.5551 42.0032 35.2784 39.7266C33.0018 37.45 32.0726 34.6173 31.6504 31.4796C31.2499 28.5002 31.2499 24.7428 31.25 20.2393V12.2169C31.6787 12.1471 32.1125 12.076 32.5538 12.0167C38.2565 11.25 45.5469 11.25 54.7509 11.2501H79.3944Z" fill="var(--fill-0, #1E1E20)"/>
</g>
</svg>
