<svg preserveAspectRatio="none" width="100%" height="100%" overflow="visible" style="display: block;" viewBox="0 0 120 120" fill="none" xmlns="http://www.w3.org/2000/svg">
<g id="Frame">
<path id="Vector" fill-rule="evenodd" clip-rule="evenodd" d="M34.9897 5H35.4507C39.9689 4.99993 43.6946 4.99986 46.7174 5.27385C49.8603 5.5587 52.7305 6.17095 55.374 7.6972C58.4345 9.46415 60.976 12.0056 62.743 15.0661C64.124 17.4575 63.3045 20.5155 60.913 21.8962C58.5215 23.2769 55.4635 22.4575 54.083 20.0661C53.1935 18.5258 51.9145 17.2467 50.374 16.3575C49.5064 15.8564 48.264 15.455 45.8148 15.233C43.2968 15.0048 40.0264 15 35.2202 15C30.4139 15 27.1435 15.0048 24.6255 15.233C22.1763 15.455 20.9339 15.8564 20.0661 16.3575C18.5258 17.2467 17.2467 18.5258 16.3575 20.0661C15.8564 20.9339 15.455 22.1763 15.233 24.6255C15.0048 27.1435 15 30.4139 15 35.2202C15 40.0264 15.0048 43.2968 15.233 45.8148C15.455 48.264 15.8564 49.5064 16.3575 50.374C17.2467 51.9145 18.5258 53.1935 20.0661 54.083C22.4575 55.4635 23.2769 58.5215 21.8962 60.913C20.5155 63.3045 17.4575 64.124 15.0661 62.743C12.0056 60.976 9.46415 58.4345 7.6972 55.374C6.17095 52.7305 5.5587 49.8603 5.27385 46.7174C4.99986 43.6946 4.99993 39.9689 5 35.4507V34.9897C4.99993 30.4714 4.99986 26.7458 5.27385 23.7229C5.55865 20.5801 6.17095 17.7096 7.6972 15.0661C9.46415 12.0056 12.0056 9.46415 15.0661 7.6972C17.7096 6.17095 20.5801 5.55865 23.7229 5.27385C26.7458 4.99986 30.4714 4.99993 34.9897 5Z" fill="var(--fill-0, #1E1E20)"/>
<path id="Vector_2" fill-rule="evenodd" clip-rule="evenodd" d="M59.9865 30H60.4475C64.965 29.9999 68.69 29.9999 71.7125 30.2738C74.855 30.5586 77.7255 31.1708 80.3685 32.697C83.429 34.4637 85.97 37.0049 87.737 40.0651C89.1175 42.4566 88.298 45.5145 85.9065 46.8952C83.5155 48.2759 80.4575 47.4566 79.0765 45.0651C78.1875 43.5251 76.9085 42.2463 75.3685 41.3572C74.501 40.8563 73.259 40.455 70.81 40.233C68.2925 40.0048 65.0225 40 60.217 40C55.4115 40 52.1415 40.0048 49.6237 40.233C47.1748 40.455 45.9327 40.8563 45.0651 41.3572C43.5251 42.2463 42.2463 43.5251 41.3572 45.0651C40.8563 45.9327 40.455 47.1748 40.233 49.6237C40.0048 52.1415 40 55.4115 40 60.217C40 65.0225 40.0048 68.2925 40.233 70.81C40.455 73.259 40.8563 74.501 41.3572 75.3685C42.2463 76.9085 43.5251 78.1875 45.0651 79.0765C47.4566 80.4575 48.2759 83.5155 46.8952 85.9065C45.5145 88.298 42.4566 89.1175 40.0651 87.737C37.0049 85.97 34.4637 83.429 32.697 80.3685C31.1708 77.7255 30.5586 74.855 30.2738 71.7125C29.9999 68.69 29.9999 64.965 30 60.4475V59.9865C29.9999 55.469 29.9999 51.7435 30.2738 48.7211C30.5586 45.5786 31.1708 42.7084 32.697 40.0651C34.4637 37.0049 37.0049 34.4637 40.0651 32.697C42.7084 31.1708 45.5786 30.5586 48.7211 30.2738C51.7435 29.9999 55.469 29.9999 59.9865 30Z" fill="var(--fill-0, #1E1E20)"/>
<path id="Vector_3" d="M85.2305 55C89.7075 55 93.4025 55 96.401 55.2715C99.5195 55.5545 102.372 56.162 105 57.6795C108.04 59.435 110.565 61.9595 112.32 65C113.838 67.628 114.446 70.4805 114.728 73.599C115 76.5975 115 80.2925 115 84.7695V85.2305C115 89.7075 115 93.4025 114.728 96.401C114.446 99.5195 113.838 102.372 112.32 105C110.565 108.04 108.04 110.565 105 112.32C102.372 113.838 99.5195 114.446 96.401 114.728C93.4025 115 89.7075 115 85.2305 115H84.7695C80.2925 115 76.5975 115 73.599 114.728C70.4805 114.446 67.628 113.838 65 112.32C61.9595 110.565 59.435 108.04 57.6795 105C56.162 102.372 55.5545 99.5195 55.2715 96.401C55 93.4025 55 89.7075 55 85.2305V84.77C55 80.293 55 76.5975 55.2715 73.599C55.5545 70.4805 56.162 67.628 57.6795 65C59.435 61.9595 61.9595 59.435 65 57.6795C67.628 56.162 70.4805 55.5545 73.599 55.2715C76.5975 55 80.2925 55 84.7695 55H85.2305Z" fill="var(--fill-0, #4569FC)"/>
</g>
</svg>
