<svg preserveAspectRatio="none" width="100%" height="100%" overflow="visible" style="display: block;" viewBox="0 0 120 120" fill="none" xmlns="http://www.w3.org/2000/svg">
<g id="Frame">
<path id="Vector" d="M75.0003 61.25C96.4013 61.25 113.75 43.9011 113.75 22.5001C113.75 17.6676 109.832 13.7501 105 13.7501H45.0001C42.7491 13.7501 40.6833 13.7405 39.0138 13.9649C37.2364 14.2039 35.3587 14.7685 33.8136 16.3136C32.2685 17.8587 31.7039 19.7364 31.4649 21.5138C31.2405 23.1833 31.2501 25.2491 31.2501 27.5001V37.5001V37.7338C31.25 42.2379 31.2499 45.995 31.6505 48.9747C32.0726 52.1125 33.0016 54.945 35.2784 57.2215C37.5552 59.4985 40.3874 60.4275 43.5255 60.8495C46.5052 61.2505 50.2623 61.25 54.7663 61.25H55.0003H75.0003Z" fill="var(--fill-0, #9719F7)"/>
<path id="Vector_2" d="M25.6299 18.75C25.4644 19.4342 25.3486 20.0834 25.2685 20.6787C24.9752 22.8605 25 25.4224 25 27.5V37.5C25 41.9372 24.9779 46.2668 25.4541 49.8096C25.4996 50.1475 25.5571 50.4895 25.6153 50.835C14.5942 48.7769 6.25 39.1181 6.25 27.5C6.25 22.6675 10.1675 18.75 15 18.75H25.6299Z" fill="var(--fill-0, #1E1E20)"/>
<path id="Vector_3" d="M95.0002 78.7501C88.7872 78.7501 83.7502 73.7131 83.7502 67.5001V66.6406C80.9197 67.1986 77.9947 67.5001 75.0002 67.5001H55.0002C51.9602 67.5001 48.9712 67.4956 46.2505 67.3486V67.5001C46.2505 73.7131 41.2137 78.7501 35.0005 78.7501C32.9175 78.7501 31.1409 78.7206 29.5903 79.1356C25.7082 80.1761 22.6764 83.2076 21.6362 87.0901C21.2209 88.6406 21.2505 90.4171 21.2505 92.5001C21.2505 94.5831 21.2209 96.3596 21.6362 97.9101C22.6764 101.793 25.7082 104.824 29.5903 105.865C31.1409 106.28 32.9175 106.25 35.0005 106.25H45.0005C45.8696 106.25 46.7491 106.255 47.476 106.197C48.1963 106.138 49.2667 105.99 50.3032 105.376C51.0167 104.953 51.5077 104.399 51.7972 104.038C52.1137 103.644 52.4037 103.207 52.6617 102.788C53.1507 101.994 53.7362 100.924 54.4237 99.6686L54.4292 99.6581L54.5122 99.5071C55.5787 97.5586 57.5057 91.2501 65.0002 91.2501C72.4952 91.2501 74.4222 97.5586 75.4887 99.5071L75.5717 99.6581L75.5772 99.6681C76.2642 100.924 76.8502 101.994 77.3392 102.788C77.5972 103.207 77.8872 103.644 78.2037 104.038C78.4932 104.399 78.9842 104.953 79.6977 105.376C80.7342 105.99 81.8047 106.138 82.5247 106.197C83.2517 106.255 84.1312 106.25 85.0002 106.25H95.0002C97.0832 106.25 98.8602 106.28 100.411 105.865C104.293 104.824 107.324 101.793 108.365 97.9101C108.78 96.3596 108.75 94.5831 108.75 92.5001C108.75 90.4171 108.78 88.6406 108.365 87.0901C107.324 83.2076 104.293 80.1761 100.411 79.1356C98.8602 78.7206 97.0832 78.7501 95.0002 78.7501Z" fill="var(--fill-0, #1E1E20)"/>
</g>
</svg>
