<svg preserveAspectRatio="none" width="100%" height="100%" overflow="visible" style="display: block;" viewBox="0 0 120 120" fill="none" xmlns="http://www.w3.org/2000/svg">
<g id="Frame">
<path id="Vector" d="M73.75 95.0545V95V25V24.9453C73.75 23.3915 73.75 22.0244 73.667 20.8935C73.58 19.7129 73.3875 18.4968 72.8465 17.2949C71.819 15.0111 69.989 13.1812 67.705 12.1533C66.503 11.6127 65.287 11.4197 64.1065 11.333C62.9755 11.25 61.6085 11.25 60.0545 11.25H60H59.9455C58.3915 11.25 57.0245 11.25 55.8935 11.333C54.713 11.4197 53.497 11.6127 52.295 12.1533C50.011 13.1812 48.1812 15.0111 47.1533 17.2949C46.6127 18.4968 46.4197 19.7129 46.333 20.8935C46.25 22.0244 46.25 23.3915 46.25 24.9454V25V95V95.0545C46.25 96.6085 46.25 97.9755 46.333 99.1065C46.4197 100.287 46.6127 101.503 47.1533 102.705C48.1812 104.989 50.011 106.819 52.295 107.846C53.497 108.387 54.713 108.58 55.8935 108.667C57.0245 108.75 58.3915 108.75 59.9455 108.75H60H60.0545C61.6085 108.75 62.9755 108.75 64.1065 108.667C65.287 108.58 66.503 108.387 67.705 107.846C69.989 106.819 71.819 104.989 72.8465 102.705C73.3875 101.503 73.58 100.287 73.667 99.1065C73.75 97.9755 73.75 96.6085 73.75 95.0545Z" fill="var(--fill-0, #4569FC)"/>
<path id="Vector_2" d="M38.75 95.0545V95V75V74.9455C38.75 73.3915 38.75 72.0245 38.667 70.8935C38.5802 69.713 38.3874 68.497 37.8467 67.295C36.8188 65.011 34.9889 63.181 32.7051 62.1535C31.5032 61.6125 30.2871 61.42 29.1065 61.333C27.9756 61.25 26.6085 61.25 25.0546 61.25H25H24.9454C23.3915 61.25 22.0244 61.25 20.8935 61.333C19.7129 61.42 18.4968 61.6125 17.2949 62.1535C15.0111 63.181 13.1812 65.011 12.1533 67.295C11.6127 68.497 11.4197 69.713 11.333 70.8935C11.25 72.0245 11.25 73.3915 11.25 74.9455V75V95V95.0545C11.25 96.6085 11.25 97.9755 11.333 99.1065C11.4197 100.287 11.6127 101.503 12.1533 102.705C13.1812 104.989 15.0111 106.819 17.2949 107.846C18.4968 108.387 19.7129 108.58 20.8935 108.667C22.0244 108.75 23.3916 108.75 24.9454 108.75H25H25.0546C26.6084 108.75 27.9756 108.75 29.1065 108.667C30.2871 108.58 31.5032 108.387 32.7051 107.846C34.9889 106.819 36.8188 104.989 37.8467 102.705C38.3874 101.503 38.5802 100.287 38.667 99.1065C38.75 97.9755 38.75 96.6085 38.75 95.0545Z" fill="var(--fill-0, #1E1E20)"/>
<path id="Vector_3" d="M108.75 95.0545V95V50V49.9453C108.75 48.3916 108.75 47.0244 108.667 45.8935C108.58 44.7129 108.387 43.4968 107.846 42.2949C106.819 40.011 104.989 38.1812 102.705 37.1533C101.503 36.6126 100.287 36.4198 99.1065 36.333C97.9755 36.25 96.6085 36.25 95.0545 36.25H95H94.9455C93.3915 36.25 92.0245 36.25 90.8935 36.333C89.713 36.4198 88.497 36.6126 87.295 37.1533C85.011 38.1812 83.181 40.011 82.1535 42.2949C81.6125 43.4968 81.42 44.7129 81.333 45.8935C81.25 47.0244 81.25 48.3916 81.25 49.9454V50V95V95.0545C81.25 96.6085 81.25 97.9755 81.333 99.1065C81.42 100.287 81.6125 101.503 82.1535 102.705C83.181 104.989 85.011 106.819 87.295 107.846C88.497 108.387 89.713 108.58 90.8935 108.667C92.0245 108.75 93.3915 108.75 94.9455 108.75H95H95.0545C96.6085 108.75 97.9755 108.75 99.1065 108.667C100.287 108.58 101.503 108.387 102.705 107.846C104.989 106.819 106.819 104.989 107.846 102.705C108.387 101.503 108.58 100.287 108.667 99.1065C108.75 97.9755 108.75 96.6085 108.75 95.0545Z" fill="var(--fill-0, #1E1E20)"/>
</g>
</svg>
