<svg preserveAspectRatio="none" width="100%" height="100%" overflow="visible" style="display: block;" viewBox="0 0 120 120" fill="none" xmlns="http://www.w3.org/2000/svg">
<g id="Frame">
<path id="Vector" d="M76.528 21.6076L76.6085 21.8086L78.304 25.3919C78.552 25.9161 79.08 26.2504 79.66 26.2504H100C102.761 26.2504 105 28.489 105 31.2504C105 34.0118 102.761 36.2504 100 36.2504H75.1125C75.036 36.2522 74.96 36.2522 74.8835 36.2504H45.1163C45.0402 36.2522 44.9639 36.2522 44.8874 36.2504H20C17.2386 36.2504 15 34.0118 15 31.2504C15 28.489 17.2386 26.2504 20 26.2504H40.34C40.9199 26.2504 41.4479 25.9161 41.6959 25.3919L43.3914 21.8086L43.4718 21.6076C45.3701 16.8619 49.9665 13.75 55.0775 13.75H64.9225C70.0335 13.75 74.63 16.8619 76.528 21.6076Z" fill="var(--fill-0, #1E1E20)"/>
<path id="Vector_2" fill-rule="evenodd" clip-rule="evenodd" d="M16.6939 52.5L18.8134 75.8145C19.3823 82.0735 19.8421 87.133 20.7266 91.1C21.6465 95.2265 23.1223 98.6635 26.0592 101.346C28.9961 104.028 32.5526 105.186 36.7454 105.729C40.7762 106.25 45.8565 106.25 52.1415 106.25H67.868C74.1525 106.25 79.2335 106.25 83.2645 105.729C87.457 105.186 91.0135 104.028 93.9505 101.346C96.8875 98.6635 98.363 95.2265 99.283 91.1C100.167 87.133 100.628 82.074 101.196 75.8155L103.315 52.5H107.5C110.261 52.5 112.5 50.2615 112.5 47.5C112.5 44.7385 110.261 42.5 107.5 42.5H12.5C9.7386 42.5 7.5 44.7385 7.5 47.5C7.5 50.2615 9.7386 52.5 12.5 52.5H16.6939Z" fill="var(--fill-0, #4569FC)"/>
</g>
</svg>
