<svg preserveAspectRatio="none" width="100%" height="100%" overflow="visible" style="display: block;" viewBox="0 0 120 120" fill="none" xmlns="http://www.w3.org/2000/svg">
<g id="Frame">
<path id="Vector" d="M46.4724 6.64956C49.6114 7.07161 52.4455 7.99996 54.7225 10.2773C57 12.5547 57.9285 15.3887 58.3505 18.5276C58.7505 21.5015 58.75 25.2476 58.75 29.7399V45C58.75 49.8201 58.758 53.058 59.0825 55.473C59.393 57.7805 59.929 58.768 60.5805 59.4195C61.232 60.071 62.2195 60.607 64.527 60.9175C66.942 61.242 70.18 61.25 75 61.25H90.26C94.7525 61.25 98.4985 61.2495 101.473 61.6495C104.612 62.0715 107.446 63 109.723 65.2775C112 67.5545 112.929 70.3885 113.351 73.5275C113.751 76.5015 113.75 80.2475 113.75 84.74V90.26C113.75 94.7525 113.751 98.4985 113.351 101.473C112.929 104.612 112 107.446 109.723 109.723C107.446 112 104.612 112.929 101.473 113.351C98.4985 113.751 94.7525 113.75 90.26 113.75H79.7075C63.456 113.75 50.876 113.75 41.0958 112.435C31.149 111.098 23.5382 108.339 17.5997 102.401C11.6611 96.462 8.90221 88.851 7.56486 78.904C6.24996 69.124 6.24996 56.544 6.25001 40.2926V29.74C6.24986 25.2477 6.24976 21.5015 6.64956 18.5276C7.07161 15.3887 7.99996 12.5547 10.2773 10.2773C12.5547 7.99996 15.3887 7.07161 18.5276 6.64956C21.5015 6.24976 25.2475 6.24986 29.7399 6.25001H35.26C39.7524 6.24986 43.4986 6.24976 46.4724 6.64956Z" fill="var(--fill-0, #4569FC)"/>
</g>
</svg>
