<svg preserveAspectRatio="none" width="100%" height="100%" overflow="visible" style="display: block;" viewBox="0 0 120 120" fill="none" xmlns="http://www.w3.org/2000/svg">
<g id="Frame">
<path id="Vector" fill-rule="evenodd" clip-rule="evenodd" d="M78.2095 6.32559C79.454 6.57929 80.486 7.44609 80.9505 8.62859C82.2775 12.0053 82.9895 15.0908 82.811 17.9319C82.624 20.9187 81.468 23.3797 79.5605 25.3953C79.2645 25.7078 78.953 26.007 78.628 26.2941C81.699 26.4825 84.8675 27.3039 87.5665 29.3342C91.6245 32.3866 93.75 37.4871 93.75 44.5408C93.75 57.8635 90.1425 67.5135 85.542 73.929C83.253 77.121 80.713 79.5165 78.254 81.141C75.883 82.707 73.2855 83.75 70.909 83.75C66.8135 83.75 64.2165 81.751 62.541 80.383C60.619 78.8135 60.3825 78.7065 60 78.7065C59.483 78.7065 58.884 79.0065 56.917 80.4795L56.7435 80.61C55.196 81.773 52.5655 83.75 49.0909 83.75C46.7143 83.75 44.1169 82.707 41.7459 81.141C39.287 79.5165 36.7471 77.121 34.4579 73.929C29.8573 67.5135 26.25 57.8635 26.25 44.5408C26.25 37.4871 28.3753 32.3866 32.4333 29.3342C36.3247 26.4072 41.1906 25.9928 45.3358 26.3654C48.4835 26.6483 51.5665 27.4153 54.16 28.2427C53.2615 26.0963 51.7335 24.3471 50.005 22.9207C48.6388 21.7937 47.2493 20.963 46.1944 20.415C45.6728 20.144 45.2485 19.9503 44.9711 19.8304C44.8328 19.7706 44.7323 19.7298 44.6759 19.7074L44.6262 19.6879C42.0474 18.7295 40.7261 15.8657 41.6742 13.2801C42.6248 10.6874 45.4972 9.35634 48.0898 10.307L48.0979 10.3099L48.1072 10.3134L48.1297 10.3217L48.1897 10.3444L48.3675 10.4137C48.5109 10.4707 48.7033 10.5495 48.9379 10.6508C49.4062 10.8532 50.0475 11.1477 50.804 11.5408C52.306 12.321 54.3255 13.5214 56.3685 15.207C57.6925 16.299 59.0705 17.6358 60.3265 19.2284C60.4925 18.7064 60.6735 18.2083 60.8695 17.7329C62.1755 14.5661 64.0915 12.5451 66.291 11.1971C67.981 10.1615 69.858 9.54519 71.206 9.10244C71.4465 9.02349 71.67 8.95009 71.873 8.88079C73.415 8.35359 74.216 7.95179 74.7855 7.37209C75.6755 6.46574 76.9645 6.07189 78.2095 6.32559ZM66.8355 24.3676C67.8415 23.9528 68.768 23.5493 69.621 23.1431C71.8495 22.082 73.2535 21.1479 74.1135 20.2395C74.8695 19.441 75.2535 18.6183 75.326 17.4625C75.3575 16.9575 75.3305 16.3599 75.2195 15.6499C74.8985 15.7702 74.5895 15.8781 74.2985 15.9776C73.9565 16.0945 73.6395 16.2004 73.343 16.2994C72.008 16.745 71.0925 17.0509 70.21 17.5918C69.3395 18.1253 68.4925 18.92 67.803 20.5921C67.4195 21.5219 67.077 22.7459 66.8355 24.3676Z" fill="var(--fill-0, #9719F7)"/>
<path id="Vector_2" fill-rule="evenodd" clip-rule="evenodd" d="M30.5941 73.75H103.875C106.567 73.75 108.75 75.9885 108.75 78.75C108.75 81.5115 106.567 83.75 103.875 83.75H99C98.4445 83.75 97.3455 84.0965 96.162 85.917C95.0015 87.7025 94.125 90.4575 94.125 93.75C94.125 97.0425 95.0015 99.7975 96.162 101.583C97.3455 103.404 98.4445 103.75 99 103.75H103.875C106.567 103.75 108.75 105.989 108.75 108.75C108.75 111.511 106.567 113.75 103.875 113.75H30.5941C28.4557 113.75 26.6105 113.75 25.0834 113.644C23.4755 113.531 21.8672 113.283 20.2783 112.608C16.6948 111.086 13.8476 108.165 12.3633 104.49C11.7051 102.86 11.4638 101.211 11.3541 99.562C11.2499 97.9955 11.25 96.103 11.25 93.91V93.59C11.25 91.397 11.2499 89.5045 11.3541 87.938C11.4638 86.289 11.7051 84.6395 12.3633 83.01C13.8476 79.3345 16.6948 76.414 20.2783 74.892C21.8672 74.217 23.4755 73.9695 25.0834 73.857C26.6106 73.75 28.4557 73.75 30.5941 73.75ZM86.2825 103.75C85.0405 100.75 84.375 97.3125 84.375 93.75C84.375 90.1875 85.0405 86.7505 86.2825 83.75H30.75C28.4119 83.75 26.9024 83.7525 25.7471 83.8335C24.6356 83.9115 24.2123 84.0445 24.0094 84.1305C22.8149 84.638 21.8659 85.6115 21.3711 86.8365C21.2871 87.0445 21.1573 87.479 21.0815 88.619C21.0027 89.8035 21 91.352 21 93.75C21 96.148 21.0027 97.6965 21.0815 98.881C21.1573 100.021 21.2871 100.455 21.3711 100.663C21.8659 101.888 22.8149 102.862 24.0095 103.37C24.2123 103.456 24.6356 103.588 25.7471 103.666C26.9024 103.747 28.4119 103.75 30.75 103.75H86.2825Z" fill="var(--fill-0, #1E1E20)"/>
</g>
</svg>
