<svg preserveAspectRatio="none" width="100%" height="100%" overflow="visible" style="display: block;" viewBox="0 0 120 120" fill="none" xmlns="http://www.w3.org/2000/svg">
<g id="Frame">
<path id="Vector" d="M64.375 33.7402V46.2402H74.375V33.7402H64.375Z" fill="var(--fill-0, #1E1E20)"/>
<path id="Vector_2" d="M92.8027 25.0015C95.7942 25.0198 97.9662 25.0851 99.6832 25.3159C101.852 25.6075 102.532 26.0782 102.912 26.4589C103.293 26.8395 103.764 27.5193 104.055 29.688C104.366 32.0005 104.377 35.139 104.377 39.9944C104.377 44.8498 104.366 47.9883 104.055 50.301C103.764 52.4695 103.293 53.1495 102.912 53.53C102.532 53.9105 101.852 54.3815 99.6832 54.673C97.9662 54.9035 95.7942 54.969 92.8027 54.9875C93.0512 56.5035 93.1267 58.19 93.1267 59.9945C93.1267 61.794 93.0517 63.476 92.8047 64.989C95.9367 64.971 98.6952 64.8955 101.016 64.5835C104.293 64.143 107.435 63.1495 109.983 60.601C112.532 58.0525 113.525 54.911 113.966 51.6335C114.377 48.5751 114.377 44.756 114.377 40.3236V39.6653C114.377 35.2328 114.377 31.4138 113.966 28.3555C113.525 25.0779 112.532 21.9361 109.983 19.3878C107.435 16.8395 104.293 15.8458 101.016 15.4051C98.6952 15.0932 95.9367 15.018 92.8047 15C93.0517 16.5128 93.1267 18.1948 93.1267 19.9944C93.1267 21.7989 93.0512 23.4853 92.8027 25.0015Z" fill="var(--fill-0, #1E1E20)"/>
<path id="Vector_3" d="M45.948 54.9903C45.7004 56.5043 45.625 58.1883 45.625 59.9903C45.625 61.7918 45.7004 63.4758 45.9481 64.9903H39.375C34.5197 64.9903 31.3811 65.0008 29.0686 65.3118C26.8999 65.6033 26.2201 66.0743 25.8395 66.4548C25.4589 66.8353 24.9882 67.5148 24.6966 69.6838C24.3857 71.9963 24.375 75.1348 24.375 79.9903V87.1773C22.8254 86.5723 21.139 86.2403 19.375 86.2403C17.6111 86.2403 15.9247 86.5723 14.375 87.1773V79.6613C14.3748 75.2288 14.3746 71.4098 14.7858 68.3513C15.2264 65.0738 16.2201 61.9318 18.7684 59.3838C21.3168 56.8353 24.4585 55.8418 27.7361 55.4008C30.7944 54.9898 34.6134 54.9898 39.0458 54.9903H45.948Z" fill="var(--fill-0, #1E1E20)"/>
<path id="Vector_4" d="M32.1875 104.99H45.9479C45.7002 103.476 45.6248 101.792 45.6248 99.9902C45.6248 98.1882 45.7002 96.5042 45.9478 94.9902H32.1875C32.7927 96.5397 33.1248 98.2262 33.1248 99.9902C33.1248 101.754 32.7927 103.44 32.1875 104.99Z" fill="var(--fill-0, #1E1E20)"/>
<g id="Group">
<path id="Vector_5" d="M5.625 100C5.625 92.406 11.7811 86.25 19.375 86.25C26.9689 86.25 33.125 92.406 33.125 100C33.125 107.594 26.9689 113.75 19.375 113.75C11.7811 113.75 5.625 107.594 5.625 100Z" fill="var(--fill-0, #9719F7)"/>
<path id="Vector_6" d="M53.5175 6.7364C55.2435 6.3572 57.2255 6.25 59.375 6.25H79.375C81.5245 6.25 83.5065 6.3572 85.2325 6.7364C87.001 7.1249 88.7315 7.8483 90.129 9.24585C91.5265 10.6434 92.25 12.374 92.6385 14.1426C93.018 15.8687 93.125 17.8505 93.125 20C93.125 22.1495 93.018 24.1314 92.6385 25.8575C92.25 27.626 91.5265 29.3566 90.129 30.7541C88.7315 32.1517 87.001 32.8751 85.2325 33.2636C83.5065 33.6428 81.5245 33.75 79.375 33.75H59.375C57.2255 33.75 55.2435 33.6428 53.5175 33.2636C51.749 32.8751 50.0185 32.1517 48.6208 30.7541C47.2233 29.3566 46.4999 27.626 46.1114 25.8575C45.7322 24.1314 45.625 22.1495 45.625 20C45.625 17.8505 45.7322 15.8687 46.1114 14.1426C46.4999 12.374 47.2233 10.6434 48.6208 9.24585C50.0185 7.8483 51.749 7.1249 53.5175 6.7364Z" fill="var(--fill-0, #9719F7)"/>
<path id="Vector_7" d="M53.5175 46.7364C55.2435 46.3572 57.2255 46.25 59.375 46.25H79.375C81.5245 46.25 83.5065 46.3572 85.2325 46.7364C87.001 47.1249 88.7315 47.8483 90.129 49.2458C91.5265 50.6435 92.25 52.374 92.6385 54.1425C93.018 55.8685 93.125 57.8505 93.125 60C93.125 62.1495 93.018 64.1315 92.6385 65.8575C92.25 67.626 91.5265 69.3565 90.129 70.754C88.7315 72.1515 87.001 72.875 85.2325 73.2635C83.5065 73.643 81.5245 73.75 79.375 73.75H59.375C57.2255 73.75 55.2435 73.643 53.5175 73.2635C51.749 72.875 50.0185 72.1515 48.6208 70.754C47.2233 69.3565 46.4999 67.626 46.1114 65.8575C45.7322 64.1315 45.625 62.1495 45.625 60C45.625 57.8505 45.7322 55.8685 46.1114 54.1425C46.4999 52.374 47.2233 50.6435 48.6208 49.2458C50.0185 47.8483 51.749 47.1249 53.5175 46.7364Z" fill="var(--fill-0, #9719F7)"/>
<path id="Vector_8" d="M53.5175 86.7365C55.2435 86.357 57.2255 86.25 59.375 86.25H79.375C81.5245 86.25 83.5065 86.357 85.2325 86.7365C87.001 87.125 88.7315 87.8485 90.129 89.246C91.5265 90.6435 92.25 92.374 92.6385 94.1425C93.018 95.8685 93.125 97.8505 93.125 100C93.125 102.149 93.018 104.131 92.6385 105.857C92.25 107.626 91.5265 109.357 90.129 110.754C88.7315 112.152 87.001 112.875 85.2325 113.264C83.5065 113.643 81.5245 113.75 79.375 113.75H59.375C57.2255 113.75 55.2435 113.643 53.5175 113.264C51.749 112.875 50.0185 112.152 48.6208 110.754C47.2233 109.357 46.4999 107.626 46.1114 105.857C45.7322 104.131 45.625 102.149 45.625 100C45.625 97.8505 45.7322 95.8685 46.1114 94.1425C46.4999 92.374 47.2233 90.6435 48.6208 89.246C50.0185 87.8485 51.749 87.125 53.5175 86.7365Z" fill="var(--fill-0, #9719F7)"/>
</g>
</g>
</svg>
