<svg preserveAspectRatio="none" width="100%" height="100%" overflow="visible" style="display: block;" viewBox="0 0 120 120" fill="none" xmlns="http://www.w3.org/2000/svg">
<g id="Frame">
<path id="Vector" fill-rule="evenodd" clip-rule="evenodd" d="M60 6.25C48.8326 6.25 38.5057 7.87885 30.7945 10.6673C26.9569 12.055 23.5135 13.8205 20.9423 16.0188C18.3767 18.2122 16.25 21.2365 16.25 25V57.0055C16.5792 57.712 17.17 58.5415 18.1775 59.4845C20.0436 61.2315 23.0145 63.0355 27.1072 64.656C35.2668 67.887 46.8936 70 60 70C73.1065 70 84.733 67.887 92.893 64.656C96.9855 63.0355 99.9565 61.2315 101.823 59.4845C102.83 58.5415 103.421 57.712 103.75 57.0055V25C103.75 21.2365 101.624 18.2122 99.0575 16.0188C96.4865 13.8205 93.043 12.055 89.2055 10.6673C81.494 7.87885 71.1675 6.25 60 6.25ZM25.9722 25C25.9722 24.8803 26.0219 24.2051 27.3921 23.0337C28.7566 21.8671 31.0084 20.6025 34.2083 19.4454C40.5721 17.1442 49.6897 15.625 60 15.625C70.3105 15.625 79.428 17.1442 85.7915 19.4454C88.9915 20.6025 91.2435 21.8671 92.608 23.0337C93.978 24.2051 94.028 24.8803 94.028 25C94.028 25.1197 93.978 25.7949 92.608 26.9663C91.2435 28.1329 88.9915 29.3975 85.7915 30.5546C79.428 32.8558 70.3105 34.375 60 34.375C49.6897 34.375 40.5721 32.8558 34.2083 30.5546C31.0084 29.3975 28.7566 28.1329 27.3921 26.9663C26.0219 25.7949 25.9722 25.1197 25.9722 25ZM55.01 49.3115C49.7886 49.0673 45.0943 48.4313 40.8008 47.5V55.1575C45.1205 56.003 50.03 56.5785 55.01 56.8115V49.3115Z" fill="var(--fill-0, #1E1E20)"/>
<path id="Vector_2" fill-rule="evenodd" clip-rule="evenodd" d="M96.773 73.917C99.281 72.924 101.632 71.7985 103.75 70.536V95C103.75 98.5285 101.83 101.442 99.3445 103.645C96.855 105.852 93.4665 107.669 89.601 109.118C81.8425 112.027 71.3765 113.75 60 113.75C48.6237 113.75 38.1573 112.027 30.399 109.118C26.5337 107.669 23.1452 105.852 20.6556 103.645C18.1704 101.442 16.25 98.5285 16.25 95V70.536C18.3681 71.7985 20.7193 72.924 23.227 73.917C32.8965 77.746 45.9002 80 60 80C74.1 80 87.1035 77.746 96.773 73.917ZM40.791 90C45.0845 90.9315 49.7789 91.5675 55 91.8115V99.3115C50.02 99.0785 45.1107 98.503 40.791 97.6575V90Z" fill="var(--fill-0, #4569FC)"/>
</g>
</svg>
