<svg preserveAspectRatio="none" width="100%" height="100%" overflow="visible" style="display: block;" viewBox="0 0 120 120" fill="none" xmlns="http://www.w3.org/2000/svg">
<g id="Frame">
<path id="Vector" d="M66.8119 16.4873C65.2554 16.3666 64.4769 16.3063 63.5614 16.5914C62.6454 16.8764 62.0939 17.3232 60.9909 18.2166C55.4754 22.6842 50.8844 28.9838 47.2693 34.8137C42.2158 42.9637 39.204 52.7615 38.3618 62.13C38.2574 63.2915 38.2052 63.8725 38.571 64.2065C38.9369 64.541 39.5338 64.432 40.7275 64.215C46.5408 63.158 53.0164 62.569 60.1999 62.569C62.0099 62.569 63.7724 62.6065 65.4884 62.6795C68.1214 62.791 69.4379 62.847 70.1974 62.162C70.9564 61.4775 71.0379 60.1325 71.2004 57.4425C71.5224 52.1295 72.4909 46.2011 74.4549 40.532C76.5709 34.4242 79.9284 28.3988 85.0579 23.8594C86.2464 22.8076 86.8404 22.2817 86.7434 21.7304C86.6464 21.1791 85.9664 20.911 84.6069 20.3746C79.5199 18.3675 73.6239 17.0153 66.8119 16.4873Z" fill="var(--fill-0, black)"/>
<path id="Vector_2" d="M48.9862 16.9855C50.1115 16.8271 50.6745 16.7479 50.839 17.0555C51.004 17.3632 50.6175 17.7978 49.8441 18.6669C46.3851 22.5548 43.4008 26.8206 40.8953 30.8613C34.8879 40.5497 31.4874 52.1485 30.7641 63.1015C30.6467 64.879 30.588 65.768 30.1492 66.359C29.7105 66.95 28.8778 67.2625 27.2124 67.8885C24.7007 68.833 22.366 69.8805 20.2014 71.0135C18.4854 71.912 16.832 72.7095 15.3518 73.1945C14.0162 73.6325 11.9878 74.111 10.0113 73.2975C7.67255 72.335 6.7684 70.213 6.45115 68.511C6.14275 66.857 6.22195 64.871 6.46685 62.726C7.6055 52.753 10.7821 41.0871 18.9931 31.8813C25.6354 24.4344 35.2866 18.9136 48.9862 16.9855Z" fill="var(--fill-0, black)"/>
<path id="Vector_3" d="M92.3725 27.6651C93.4985 26.905 94.0615 26.525 94.9095 26.577C95.757 26.629 96.303 27.1044 97.3955 28.0553C98.787 29.2664 100.073 30.5505 101.261 31.8977C109.388 41.1124 112.459 52.7838 113.548 62.7438C113.782 64.8873 113.852 66.8713 113.538 68.5228C113.216 70.2188 112.309 72.3373 109.972 73.2963C107.992 74.1088 105.963 73.6248 104.629 73.1828C103.15 72.6933 101.499 71.8898 99.786 70.9843C94.934 68.4213 89.2395 66.2963 82.575 64.8233C80.6115 64.3893 79.6295 64.1723 79.0765 63.4648C78.5235 62.7578 78.547 61.8483 78.594 60.0293C78.729 54.8083 79.5635 48.6983 81.5415 42.9885C83.728 36.6766 87.1915 31.1618 92.3725 27.6651Z" fill="var(--fill-0, black)"/>
<path id="Vector_4" d="M103.256 82.2601C103.341 81.4961 103.384 81.1141 103.197 80.8176C103.01 80.5211 102.614 80.3841 101.823 80.1101C99.9185 79.4511 98.064 78.5631 96.2865 77.6236C87.979 73.2346 76.3615 70.0781 60.2035 70.0781C44.005 70.0781 32.1203 73.2511 23.6832 77.6676C21.9174 78.5916 20.0768 79.4666 18.1879 80.1176C17.3956 80.3906 16.9995 80.5271 16.8119 80.8236C16.6243 81.1206 16.667 81.5031 16.7525 82.2681C16.7779 82.4956 16.8046 82.7201 16.8327 82.9416C17.4295 87.6541 18.6988 91.6006 21.6676 94.7516C23.3434 96.5306 25.7157 97.8671 28.2434 98.9041C30.8278 99.9641 33.8712 100.831 37.1613 101.522C43.7447 102.906 51.633 103.656 59.4955 103.741C67.3555 103.826 75.339 103.247 82.104 101.903C85.4865 101.231 88.6455 100.352 91.3655 99.2256C94.049 98.1146 96.531 96.6721 98.34 94.7516C101.309 91.6006 102.578 87.6541 103.175 82.9416C103.203 82.7176 103.23 82.4901 103.256 82.2601Z" fill="var(--fill-0, #4569FC)"/>
</g>
</svg>
