<svg preserveAspectRatio="none" width="100%" height="100%" overflow="visible" style="display: block;" viewBox="0 0 120 120" fill="none" xmlns="http://www.w3.org/2000/svg">
<g id="Frame">
<path id="Vector" d="M41.2495 52.5C41.2495 42.1447 49.6442 33.75 59.9995 33.75C70.355 33.75 78.7495 42.1447 78.7495 52.5C78.7495 60.128 74.194 66.6925 67.6555 69.621C81.0245 72.7325 91.25 83.8075 91.25 97.495C91.25 99.5665 89.571 101.245 87.5 101.245H32.5C30.429 101.245 28.75 99.5665 28.75 97.495C28.75 83.8075 38.9753 72.733 52.344 69.621C45.8049 66.6925 41.2495 60.1285 41.2495 52.5Z" fill="var(--fill-0, #FF8120)"/>
<path id="Vector_2" d="M37.4995 18.7402C27.1442 18.7402 18.7495 27.1349 18.7495 37.4902C18.7495 45.1185 23.3049 51.683 29.8439 54.611C16.4753 57.7235 6.25 68.798 6.25 82.4855C6.25 84.5565 7.92895 86.2355 10 86.2355H23.1264C25.8622 78.333 31.3916 71.8015 38.3955 67.4035C35.4674 63.171 33.7495 58.0335 33.7495 52.49C33.7495 40.366 41.9693 30.1615 53.14 27.1455C49.7831 22.0802 44.0313 18.7402 37.4995 18.7402Z" fill="var(--fill-0, #1E1E20)"/>
<path id="Vector_3" d="M96.87 86.2355C94.1345 78.3325 88.6045 71.801 81.6005 67.403C84.5285 63.1705 86.246 58.033 86.246 52.49C86.246 40.366 78.0265 30.1615 66.8555 27.1455C70.2125 22.0802 75.9645 18.7402 82.496 18.7402C92.8515 18.7402 101.246 27.1349 101.246 37.4902C101.246 45.1184 96.691 51.6825 90.152 54.611C103.521 57.723 113.746 68.7975 113.746 82.4855C113.746 84.5565 112.067 86.2355 109.996 86.2355H96.87Z" fill="var(--fill-0, #1E1E20)"/>
</g>
</svg>
