<svg preserveAspectRatio="none" width="100%" height="100%" overflow="visible" style="display: block;" viewBox="0 0 120 120" fill="none" xmlns="http://www.w3.org/2000/svg">
<g id="Frame">
<path id="Vector" d="M9.4642 62.85C10.736 62.1265 12.1597 61.875 13.5424 61.875H106.458C107.84 61.875 109.265 62.1265 110.536 62.85C111.874 63.6115 112.794 64.757 113.292 66.071C114.19 68.441 113.598 70.975 112.963 72.7185C112.267 74.6285 111.178 76.511 110.024 78.044C108.951 79.471 107.478 81.0595 105.831 81.884L94.027 87.791C93.4045 88.1025 93.061 88.2755 92.8075 88.419C92.695 88.4825 92.6345 88.5215 92.603 88.5435L92.5765 88.5625C91.205 89.774 90.318 91.3685 89.0605 93.6335L89.058 93.638C88.8575 94 88.647 94.379 88.4235 94.7765C86.9495 97.398 84.9205 100.712 81.1215 102.747C79.424 103.656 77.6795 104.036 75.803 104.211C74.0425 104.375 71.9305 104.375 69.4525 104.375H50.548C48.0697 104.375 45.9577 104.375 44.1973 104.211C42.3208 104.036 40.5761 103.656 38.8789 102.747C35.0799 100.712 33.0511 97.398 31.577 94.7765C31.3527 94.3775 31.1415 93.997 30.9399 93.634C29.6828 91.369 28.7991 89.777 27.4275 88.565L27.3975 88.5435C27.366 88.5215 27.3052 88.4825 27.1927 88.419C26.9392 88.2755 26.596 88.1025 25.9735 87.791L14.169 81.884C12.5217 81.0595 11.0487 79.471 9.97565 78.044C8.8225 76.511 7.73305 74.6285 7.03695 72.7185C6.40165 70.975 5.8102 68.441 6.70865 66.071C7.20685 64.757 8.1268 63.6115 9.4642 62.85Z" fill="var(--fill-0, #4569FC)"/>
<path id="Vector_2" fill-rule="evenodd" clip-rule="evenodd" d="M65.1624 25.9209C59.4199 24.721 54.0424 27.1744 51.3564 31.201C57.3064 32.2927 62.7304 34.8891 67.2189 38.5812C69.6329 37.4132 72.2269 36.5617 74.9464 36.0804C74.5074 31.439 70.9094 27.1218 65.1624 25.9209ZM67.2079 16.1323C55.7844 13.7453 43.937 19.9665 40.5056 30.9108C24.3105 32.9865 11.5778 46.1309 10.1355 62.516C11.226 62.047 12.3976 61.875 13.5411 61.875H20.2787C22.088 49.8469 32.4667 40.625 44.9993 40.625C57.5319 40.625 67.9104 49.8469 69.7199 61.875H79.8009C79.2009 56.244 77.2659 51.0115 74.3179 46.5015C76.1599 45.9317 78.1174 45.625 80.1504 45.625C89.8184 45.625 97.9084 52.6035 99.6524 61.875H106.457C107.593 61.875 108.756 62.0445 109.84 62.5065C108.455 49.0326 98.1879 38.1768 84.9874 36.0166C84.5394 26.429 77.2024 18.2209 67.2079 16.1323ZM59.9994 61.875V61.736C59.9994 53.347 53.7659 45.625 44.9993 45.625C36.2325 45.625 29.9993 53.347 29.9993 61.736C29.9993 61.7825 29.9999 61.829 30.0012 61.875H39.9974C39.9986 61.829 39.9993 61.7825 39.9993 61.736C39.9993 57.8525 42.7203 55.625 44.9993 55.625C47.2782 55.625 49.9993 57.8525 49.9993 61.736V61.875H59.9994Z" fill="var(--fill-0, black)"/>
</g>
</svg>
