<svg width="593" height="80" viewBox="0 0 593 80" fill="none" xmlns="http://www.w3.org/2000/svg">
<path d="M103.087 0C103.988 0 104.481 1.05211 103.903 1.74424L44.4729 72.9137C41.2416 76.7833 36.4601 79.0199 31.4187 79.0199H1.47474C0.749229 79.0199 0.236926 78.3091 0.466352 77.6208L17.6504 26.0684C22.8097 10.5903 37.4731 0 53.7658 0H103.087Z" fill="#0070F9"/>
<path d="M105.36 29.5192C105.36 28.4986 104.061 28.0646 103.447 28.8801L66.9951 77.317C66.468 78.0175 66.9677 79.0191 67.8444 79.0191H85.2654C96.3987 79.0191 105.36 70.0581 105.36 58.9247V29.5192Z" fill="#0070F9"/>
<path d="M240.638 0C241.225 0 241.701 0.475893 241.701 1.06294V11.3451C241.701 11.9322 241.225 12.4081 240.638 12.4081H231.662C231.075 12.4081 230.599 11.9322 230.599 11.3451V1.06294C230.599 0.475893 231.075 0 231.662 0H240.638ZM231.662 79.0199C231.075 79.0199 230.599 78.544 230.599 77.9569V22.2873C230.599 21.7002 231.075 21.2243 231.662 21.2243H240.638C241.225 21.2243 241.701 21.7002 241.701 22.2873V77.9569C241.701 78.544 241.225 79.0199 240.638 79.0199H231.662Z" fill="#1E1E20"/>
<path d="M334.678 0C335.265 0 335.741 0.475893 335.741 1.06294V11.3451C335.741 11.9322 335.265 12.4081 334.678 12.4081H325.702C325.115 12.4081 324.639 11.9322 324.639 11.3451V1.06294C324.639 0.475893 325.115 0 325.702 0H334.678ZM325.702 79.0199C325.115 79.0199 324.639 78.544 324.639 77.9569V22.2873C324.639 21.7002 325.115 21.2243 325.702 21.2243H334.678C335.265 21.2243 335.741 21.7002 335.741 22.2873V77.9569C335.741 78.544 335.265 79.0199 334.678 79.0199H325.702Z" fill="#1E1E20"/>
<path d="M159.964 79.0199C160.417 79.0199 160.821 78.7319 160.969 78.3029L167.332 59.8186C167.48 59.3896 167.884 59.1016 168.337 59.1016H202.086C202.54 59.1016 202.943 59.3896 203.091 59.8186L209.454 78.3029C209.602 78.7319 210.006 79.0199 210.46 79.0199H220.615C221.346 79.0199 221.859 78.299 221.619 77.6084L194.929 0.714382C194.781 0.286717 194.377 0 193.925 0H176.175C175.721 0 175.317 0.28852 175.17 0.718095L148.797 77.6121C148.56 78.302 149.073 79.0199 149.802 79.0199H159.964ZM183.661 11.8235C183.807 11.3922 184.212 11.102 184.667 11.102H185.429C185.885 11.102 186.29 11.3922 186.436 11.8235L198.45 47.2484C198.683 47.9377 198.171 48.6527 197.443 48.6527H172.654C171.926 48.6527 171.413 47.9377 171.647 47.2484L183.661 11.8235Z" fill="#1E1E20"/>
<path d="M312.073 1.74599C312.653 1.05429 312.161 0 311.259 0H299.334C299.023 0 298.727 0.136521 298.525 0.373507L268.716 35.3541C268.075 36.1063 266.844 35.653 266.844 34.6646V1.06294C266.844 0.475895 266.368 0 265.781 0H255.825C255.238 0 254.762 0.475893 254.762 1.06294V77.9569C254.762 78.544 255.238 79.0199 255.825 79.0199H265.781C266.368 79.0199 266.844 78.544 266.844 77.9569V47.009C266.844 46.0571 267.999 45.5851 268.665 46.2646L300.49 78.7014C300.69 78.9051 300.963 79.0199 301.249 79.0199H313.986C314.922 79.0199 315.401 77.8977 314.754 77.2218L280.237 41.1777C279.862 40.7861 279.842 40.1749 280.191 39.7595L312.073 1.74599Z" fill="#1E1E20"/>
<path d="M364.802 63.9996V31.7566C364.802 31.1696 365.278 30.6937 365.865 30.6937H376.147C376.734 30.6937 377.21 30.2178 377.21 29.6307V21.6342C377.21 21.0472 376.734 20.5713 376.147 20.5713H365.865C365.278 20.5713 364.802 20.0954 364.802 19.5084V1.06294C364.802 0.475893 364.326 0 363.739 0H354.763C354.176 0 353.7 0.475893 353.7 1.06294V19.5084C353.7 20.0954 353.224 20.5713 352.637 20.5713H347.253C346.666 20.5713 346.19 21.0472 346.19 21.6342V29.6307C346.19 30.2178 346.666 30.6937 347.253 30.6937H352.637C353.224 30.6937 353.7 31.1696 353.7 31.7566V61.7139C353.7 71.8362 356.966 79.0199 369.7 79.0199H377.454C378.041 79.0199 378.516 78.544 378.516 77.9569V68.9808C378.516 68.3938 378.041 67.9179 377.454 67.9179H368.068C365.129 67.9179 364.802 67.2649 364.802 63.9996Z" fill="#1E1E20"/>
<path d="M567.436 79.1812C561.755 79.1812 556.878 77.9459 552.805 75.4216C548.678 72.951 545.516 69.4599 543.372 64.9484C541.175 60.4369 540.103 55.2809 540.103 49.4804C540.103 43.465 541.228 38.2553 543.479 33.7438C545.73 29.286 548.946 25.8487 553.073 23.4318C557.199 21.0149 561.969 19.7796 567.382 19.7796C572.634 19.7796 577.19 20.9612 581.049 23.3244C584.907 25.6875 587.855 29.0175 589.892 33.2604C591.928 37.5034 593 42.3372 593 47.8154C593 48.5673 592.946 49.4267 592.946 50.286C592.911 50.8573 592.875 51.4523 592.824 52.0395C592.78 52.5421 592.353 52.9177 591.849 52.9177H552.235C551.648 52.9177 551.186 53.4213 551.257 54.0039C551.643 57.181 552.463 59.8803 553.716 62.1019C555.109 64.5725 557.039 66.4523 559.397 67.6875C561.755 68.9765 564.595 69.5673 567.811 69.5673C571.348 69.5673 574.349 68.9765 576.708 67.6875C578.848 66.5173 580.371 64.9487 581.315 62.9414C581.49 62.5698 581.854 62.3167 582.265 62.3167H591.437C592.075 62.3167 592.551 62.9072 592.379 63.5219C591.561 66.4501 590.16 69.008 588.177 71.2323C585.872 73.8103 582.924 75.7438 579.387 77.1402C575.85 78.5367 571.83 79.1812 567.436 79.1812ZM580.728 44.0021C581.307 44.0021 581.767 43.5109 581.707 42.9347C581.428 40.2681 580.805 37.9274 579.762 35.8384C578.583 33.529 576.922 31.7566 574.778 30.4676C572.634 29.2323 570.062 28.5878 567.168 28.5878C564.381 28.5878 561.916 29.1249 559.665 30.1991C557.414 31.2732 555.592 32.9919 554.145 35.2477C552.805 37.3096 551.892 39.8424 551.407 42.8844C551.312 43.4768 551.779 44.0021 552.379 44.0021H580.728Z" fill="#FF2D55"/>
<path d="M567.436 79.1812C561.755 79.1812 556.878 77.9459 552.805 75.4216C548.678 72.951 545.516 69.4599 543.372 64.9484C541.175 60.4369 540.103 55.2809 540.103 49.4804C540.103 43.465 541.228 38.2553 543.479 33.7438C545.73 29.286 548.946 25.8487 553.073 23.4318C557.199 21.0149 561.969 19.7796 567.382 19.7796C572.634 19.7796 577.19 20.9612 581.049 23.3244C584.907 25.6875 587.855 29.0175 589.892 33.2604C591.928 37.5034 593 42.3372 593 47.8154C593 48.5673 592.946 49.4267 592.946 50.286C592.911 50.8573 592.875 51.4523 592.824 52.0395C592.78 52.5421 592.353 52.9177 591.849 52.9177H552.235C551.648 52.9177 551.186 53.4213 551.257 54.0039C551.643 57.181 552.463 59.8803 553.716 62.1019C555.109 64.5725 557.039 66.4523 559.397 67.6875C561.755 68.9765 564.595 69.5673 567.811 69.5673C571.348 69.5673 574.349 68.9765 576.708 67.6875C578.848 66.5173 580.371 64.9487 581.315 62.9414C581.49 62.5698 581.854 62.3167 582.265 62.3167H591.437C592.075 62.3167 592.551 62.9072 592.379 63.5219C591.561 66.4501 590.16 69.008 588.177 71.2323C585.872 73.8103 582.924 75.7438 579.387 77.1402C575.85 78.5367 571.83 79.1812 567.436 79.1812ZM580.728 44.0021C581.307 44.0021 581.767 43.5109 581.707 42.9347C581.428 40.2681 580.805 37.9274 579.762 35.8384C578.583 33.529 576.922 31.7566 574.778 30.4676C572.634 29.2323 570.062 28.5878 567.168 28.5878C564.381 28.5878 561.916 29.1249 559.665 30.1991C557.414 31.2732 555.592 32.9919 554.145 35.2477C552.805 37.3096 551.892 39.8424 551.407 42.8844C551.312 43.4768 551.779 44.0021 552.379 44.0021H580.728Z" fill="url(#paint0_radial_1446_1993)"/>
<path d="M506.604 77.9459C506.191 77.9459 505.821 77.6921 505.672 77.307L484.419 22.4298C484.165 21.7744 484.649 21.0686 485.352 21.0686H494.87C495.293 21.0686 495.67 21.3349 495.812 21.7336L507.741 55.2809C508.438 57.3218 509.081 59.309 509.671 61.35C510.175 63.2707 510.632 65.0012 510.997 66.5413C511.036 66.7093 511.186 66.8282 511.359 66.8282C511.531 66.8282 511.681 66.7093 511.721 66.5414C512.086 65.0069 512.546 63.3242 513.101 61.4037C513.637 59.3628 514.28 57.3218 514.976 55.2809L526.641 21.7402C526.78 21.3381 527.159 21.0686 527.585 21.0686H537.108C537.808 21.0686 538.292 21.7693 538.043 22.4236L517.204 77.3009C517.057 77.6892 516.685 77.9459 516.269 77.9459H506.604Z" fill="#FF2D55"/>
<path d="M506.604 77.9459C506.191 77.9459 505.821 77.6921 505.672 77.307L484.419 22.4298C484.165 21.7744 484.649 21.0686 485.352 21.0686H494.87C495.293 21.0686 495.67 21.3349 495.812 21.7336L507.741 55.2809C508.438 57.3218 509.081 59.309 509.671 61.35C510.175 63.2707 510.632 65.0012 510.997 66.5413C511.036 66.7093 511.186 66.8282 511.359 66.8282C511.531 66.8282 511.681 66.7093 511.721 66.5414C512.086 65.0069 512.546 63.3242 513.101 61.4037C513.637 59.3628 514.28 57.3218 514.976 55.2809L526.641 21.7402C526.78 21.3381 527.159 21.0686 527.585 21.0686H537.108C537.808 21.0686 538.292 21.7693 538.043 22.4236L517.204 77.3009C517.057 77.6892 516.685 77.9459 516.269 77.9459H506.604Z" fill="url(#paint1_radial_1446_1993)"/>
<path d="M410 77.9459C409.448 77.9459 409 77.4982 409 76.9459V1.49837C409 0.946083 409.448 0.498367 410 0.498367H419.898C420.45 0.498367 420.898 0.946082 420.898 1.49837V66.5265C420.898 67.0788 421.346 67.5265 421.898 67.5265H455.109C455.661 67.5265 456.109 67.9742 456.109 68.5265V76.9459C456.109 77.4982 455.661 77.9459 455.109 77.9459H410Z" fill="#FF2D55"/>
<path d="M410 77.9459C409.448 77.9459 409 77.4982 409 76.9459V1.49837C409 0.946083 409.448 0.498367 410 0.498367H419.898C420.45 0.498367 420.898 0.946082 420.898 1.49837V66.5265C420.898 67.0788 421.346 67.5265 421.898 67.5265H455.109C455.661 67.5265 456.109 67.9742 456.109 68.5265V76.9459C456.109 77.4982 455.661 77.9459 455.109 77.9459H410Z" fill="url(#paint2_radial_1446_1993)"/>
<path d="M475.615 0.181152C476.167 0.181152 476.615 0.628868 476.615 1.18115V11.3922C476.615 11.9444 476.167 12.3922 475.615 12.3922H466.713C466.161 12.3922 465.713 11.9444 465.713 11.3922V1.18115C465.713 0.628868 466.161 0.181152 466.713 0.181152H475.615ZM466.713 77.9459C466.161 77.9459 465.713 77.4982 465.713 76.9459V22.0684C465.713 21.5161 466.161 21.0684 466.713 21.0684H475.615C476.167 21.0684 476.615 21.5161 476.615 22.0684V76.9459C476.615 77.4982 476.167 77.9459 475.615 77.9459H466.713Z" fill="#FF2D55"/>
<path d="M475.615 0.181152C476.167 0.181152 476.615 0.628868 476.615 1.18115V11.3922C476.615 11.9444 476.167 12.3922 475.615 12.3922H466.713C466.161 12.3922 465.713 11.9444 465.713 11.3922V1.18115C465.713 0.628868 466.161 0.181152 466.713 0.181152H475.615ZM466.713 77.9459C466.161 77.9459 465.713 77.4982 465.713 76.9459V22.0684C465.713 21.5161 466.161 21.0684 466.713 21.0684H475.615C476.167 21.0684 476.615 21.5161 476.615 22.0684V76.9459C476.615 77.4982 476.167 77.9459 475.615 77.9459H466.713Z" fill="url(#paint3_radial_1446_1993)"/>
<defs>
<radialGradient id="paint0_radial_1446_1993" cx="0" cy="0" r="1" gradientUnits="userSpaceOnUse" gradientTransform="translate(408.472 79.4611) scale(274.689 146.554)">
<stop offset="0.113249" stop-color="#B84FED"/>
<stop offset="1" stop-color="#B84FED" stop-opacity="0"/>
</radialGradient>
<radialGradient id="paint1_radial_1446_1993" cx="0" cy="0" r="1" gradientUnits="userSpaceOnUse" gradientTransform="translate(408.472 79.4611) scale(274.689 146.554)">
<stop offset="0.113249" stop-color="#B84FED"/>
<stop offset="1" stop-color="#B84FED" stop-opacity="0"/>
</radialGradient>
<radialGradient id="paint2_radial_1446_1993" cx="0" cy="0" r="1" gradientUnits="userSpaceOnUse" gradientTransform="translate(408.472 79.4611) scale(274.689 146.554)">
<stop offset="0.113249" stop-color="#B84FED"/>
<stop offset="1" stop-color="#B84FED" stop-opacity="0"/>
</radialGradient>
<radialGradient id="paint3_radial_1446_1993" cx="0" cy="0" r="1" gradientUnits="userSpaceOnUse" gradientTransform="translate(408.472 79.4611) scale(274.689 146.554)">
<stop offset="0.113249" stop-color="#B84FED"/>
<stop offset="1" stop-color="#B84FED" stop-opacity="0"/>
</radialGradient>
</defs>
</svg>
