<svg width="360" height="76" viewBox="0 0 360 76" fill="none" xmlns="http://www.w3.org/2000/svg">
<path d="M96.5963 0C97.4446 0 97.9076 0.989819 97.3639 1.64096L41.453 68.5964C38.413 72.2369 33.9146 74.3411 29.1718 74.3411H1.00077C0.31821 74.3411 -0.16376 73.6724 0.0520827 73.0248L16.2186 24.5249C21.0725 9.96324 34.8677 0 50.1956 0H96.5963Z" fill="#0070F9"/>
<path d="M98.7346 27.7714C98.7346 26.8112 97.513 26.4029 96.9356 27.1701L62.6417 72.739C62.1457 73.398 62.6159 74.3403 63.4407 74.3403H79.8301C90.3042 74.3403 98.7346 65.9099 98.7346 55.4357V27.7714Z" fill="#0070F9"/>
<path d="M226.004 0C226.556 0 227.004 0.447715 227.004 1V10.6734C227.004 11.2257 226.556 11.6734 226.004 11.6734H217.559C217.007 11.6734 216.559 11.2257 216.559 10.6734V0.999999C216.559 0.447715 217.007 0 217.559 0H226.004ZM217.559 74.3411C217.007 74.3411 216.559 73.8934 216.559 73.3411V20.9676C216.559 20.4154 217.007 19.9676 217.559 19.9676H226.004C226.556 19.9676 227.004 20.4154 227.004 20.9676V73.3411C227.004 73.8934 226.556 74.3411 226.004 74.3411H217.559Z" fill="#FDFDFD"/>
<path d="M314.476 0C315.028 0 315.476 0.447715 315.476 1V10.6734C315.476 11.2257 315.028 11.6734 314.476 11.6734H306.031C305.479 11.6734 305.031 11.2257 305.031 10.6734V0.999999C305.031 0.447715 305.479 0 306.031 0H314.476ZM306.031 74.3411C305.479 74.3411 305.031 73.8934 305.031 73.3411V20.9676C305.031 20.4154 305.479 19.9676 306.031 19.9676H314.476C315.028 19.9676 315.476 20.4154 315.476 20.9676V73.3411C315.476 73.8934 315.028 74.3411 314.476 74.3411H306.031Z" fill="#FDFDFD"/>
<path d="M150.107 74.3411C150.533 74.3411 150.913 74.0702 151.052 73.6666L157.039 56.2767C157.178 55.8731 157.557 55.6022 157.984 55.6022H189.735C190.161 55.6022 190.541 55.8731 190.68 56.2767L196.667 73.6666C196.806 74.0702 197.186 74.3411 197.612 74.3411H207.167C207.855 74.3411 208.337 73.6629 208.112 73.0132L183.001 0.672083C182.862 0.269741 182.483 0 182.057 0H165.358C164.931 0 164.551 0.271437 164.412 0.675576L139.601 73.0166C139.378 73.6657 139.86 74.3411 140.547 74.3411H150.107ZM172.4 11.1234C172.538 10.7176 172.919 10.4446 173.347 10.4446H174.064C174.493 10.4446 174.874 10.7176 175.011 11.1234L186.314 44.4508C186.533 45.0993 186.051 45.772 185.367 45.772H162.045C161.36 45.772 160.878 45.0993 161.098 44.4508L172.4 11.1234Z" fill="#FDFDFD"/>
<path d="M293.209 1.64261C293.755 0.991871 293.292 0 292.443 0H281.225C280.932 0 280.654 0.128437 280.464 0.351392L252.419 33.2607C251.816 33.9685 250.658 33.542 250.658 32.6121V1C250.658 0.447715 250.21 0 249.658 0H240.292C239.74 0 239.292 0.447715 239.292 1V73.3411C239.292 73.8934 239.74 74.3411 240.292 74.3411H249.658C250.21 74.3411 250.658 73.8934 250.658 73.3411V44.2256C250.658 43.3301 251.745 42.886 252.372 43.5252L282.312 74.0414C282.5 74.2331 282.758 74.3411 283.026 74.3411H295.009C295.89 74.3411 296.341 73.2854 295.732 72.6494L263.259 38.7395C262.906 38.3711 262.887 37.7962 263.215 37.4053L293.209 1.64261Z" fill="#FDFDFD"/>
<path d="M342.816 60.2101V29.8763C342.816 29.324 343.264 28.8763 343.816 28.8763H353.49C354.042 28.8763 354.49 28.4286 354.49 27.8763V20.3533C354.49 19.801 354.042 19.3533 353.49 19.3533H343.816C343.264 19.3533 342.816 18.9055 342.816 18.3533V0.999999C342.816 0.447714 342.369 0 341.816 0H333.372C332.819 0 332.372 0.447715 332.372 1V18.3533C332.372 18.9055 331.924 19.3533 331.372 19.3533H326.306C325.754 19.3533 325.306 19.801 325.306 20.3533V27.8763C325.306 28.4286 325.754 28.8763 326.306 28.8763H331.372C331.924 28.8763 332.372 29.324 332.372 29.8763V58.0598C332.372 67.5828 335.444 74.3411 347.424 74.3411H354.719C355.271 74.3411 355.719 73.8934 355.719 73.3411V64.8965C355.719 64.3442 355.271 63.8965 354.719 63.8965H345.888C343.124 63.8965 342.816 63.2821 342.816 60.2101Z" fill="#FDFDFD"/>
</svg>
